<svg width="31" height="31" viewBox="0 0 31 31" fill="none" xmlns="http://www.w3.org/2000/svg">
<path d="M15.4998 0.353882C8.55874 0.353882 2.36626 5.3429 0.914276 12.1365C0.188856 15.5311 0.677536 19.1407 2.29596 22.2122C3.85358 25.1683 6.40718 27.5573 9.46238 28.9113C12.6403 30.3199 16.2887 30.5654 19.6289 29.6048C22.8513 28.6783 25.7085 26.6449 27.6537 23.9154C31.7209 18.2089 31.1771 10.1932 26.3921 5.07994C23.5877 2.08326 19.6046 0.353882 15.4998 0.353882ZM22.6548 16.0657L18.5888 20.2298C17.5594 21.2843 15.9323 19.6868 16.9575 18.6372L19.0091 16.5362H9.28644C8.59597 16.5362 8.0199 15.9597 8.0199 15.2696C8.0199 14.5796 8.59636 14.0031 9.28644 14.0031H18.9605L16.8682 11.9112C15.8285 10.8715 17.4405 9.25918 18.4802 10.2989L22.6453 14.4637C23.0869 14.9048 23.0911 15.6192 22.6548 16.0657Z" fill="white"/>
</svg>
